<svg width="1483" height="795" viewBox="0 0 1483 795" fill="none" xmlns="http://www.w3.org/2000/svg">
<path d="M92.627 433.4V523H72.531V512.12C66.387 520.397 57.3417 524.536 45.395 524.536C34.8137 524.536 26.5363 521.208 20.563 514.552C14.675 507.811 11.731 498.253 11.731 485.88V433.4H32.467V485.24C32.467 492.408 34.131 497.827 37.459 501.496C40.8723 505.08 45.4803 506.872 51.283 506.872C57.5123 506.872 62.5043 504.952 66.259 501.112C70.0137 497.187 71.891 491.427 71.891 483.832V433.4H92.627ZM168.018 470.52H132.69V523H112.85V454.136H168.018V470.52ZM213.928 453.112C221.267 453.112 227.667 454.563 233.128 457.464C238.589 460.365 242.813 464.504 245.8 469.88C248.787 475.256 250.28 481.528 250.28 488.696C250.28 495.693 248.872 501.88 246.056 507.256C243.24 512.547 239.272 516.685 234.152 519.672C229.032 522.573 223.144 524.024 216.488 524.024C207.699 524.024 200.829 521.251 195.88 515.704V547.832H175.912V488.824C175.912 481.741 177.491 475.512 180.648 470.136C183.805 464.76 188.243 460.579 193.96 457.592C199.677 454.605 206.333 453.112 213.928 453.112ZM213.032 507.64C218.237 507.64 222.461 505.891 225.704 502.392C228.947 498.893 230.568 494.328 230.568 488.696C230.568 482.979 228.947 478.371 225.704 474.872C222.461 471.288 218.237 469.496 213.032 469.496C207.827 469.496 203.603 471.245 200.36 474.744C197.203 478.243 195.624 482.851 195.624 488.568C195.624 494.285 197.203 498.893 200.36 502.392C203.517 505.891 207.741 507.64 213.032 507.64ZM296.606 524.024C289.353 524.024 282.825 522.531 277.022 519.544C271.305 516.472 266.825 512.248 263.582 506.872C260.339 501.496 258.718 495.395 258.718 488.568C258.718 481.741 260.339 475.64 263.582 470.264C266.825 464.888 271.305 460.707 277.022 457.72C282.825 454.648 289.353 453.112 296.606 453.112C303.859 453.112 310.345 454.648 316.062 457.72C321.779 460.707 326.259 464.888 329.502 470.264C332.745 475.64 334.366 481.741 334.366 488.568C334.366 495.395 332.745 501.496 329.502 506.872C326.259 512.248 321.779 516.472 316.062 519.544C310.345 522.531 303.859 524.024 296.606 524.024ZM296.606 507.64C301.726 507.64 305.907 505.933 309.15 502.52C312.478 499.021 314.142 494.371 314.142 488.568C314.142 482.765 312.478 478.157 309.15 474.744C305.907 471.245 301.726 469.496 296.606 469.496C291.486 469.496 287.262 471.245 283.934 474.744C280.606 478.157 278.942 482.765 278.942 488.568C278.942 494.371 280.606 499.021 283.934 502.52C287.262 505.933 291.486 507.64 296.606 507.64ZM400.708 487.032C408.815 489.763 412.868 495.224 412.868 503.416C412.868 509.645 410.521 514.467 405.828 517.88C401.135 521.293 394.137 523 384.836 523H348.1V454.136H383.3C391.919 454.136 398.66 455.715 403.524 458.872C408.388 461.944 410.82 466.296 410.82 471.928C410.82 475.341 409.924 478.371 408.132 481.016C406.425 483.576 403.951 485.581 400.708 487.032ZM366.404 482.424H381.508C388.505 482.424 392.004 479.949 392.004 475C392.004 470.136 388.505 467.704 381.508 467.704H366.404V482.424ZM383.172 509.432C390.511 509.432 394.18 506.915 394.18 501.88C394.18 499.235 393.327 497.315 391.62 496.12C389.913 494.84 387.225 494.2 383.556 494.2H366.404V509.432H383.172ZM458.957 524.92C448.034 524.92 439.842 522.488 434.381 517.624C428.92 512.76 426.189 505.592 426.189 496.12V454.136H446.029V477.432C447.992 476.067 450.552 474.915 453.709 473.976C456.952 473.037 460.621 472.568 464.717 472.568C473.165 472.568 479.778 474.701 484.557 478.968C489.336 483.235 491.725 489.464 491.725 497.656C491.725 506.36 488.781 513.101 482.893 517.88C477.005 522.573 469.026 524.92 458.957 524.92ZM499.021 454.136H518.989V523H499.021V454.136ZM458.957 510.84C463.053 510.84 466.168 509.645 468.301 507.256C470.434 504.867 471.501 501.752 471.501 497.912C471.501 494.328 470.392 491.469 468.173 489.336C466.04 487.117 462.925 486.008 458.829 486.008C455.928 486.008 453.368 486.605 451.149 487.8C449.016 488.909 447.309 490.445 446.029 492.408V498.04C446.029 502.051 447.138 505.208 449.357 507.512C451.576 509.731 454.776 510.84 458.957 510.84ZM572.404 508.024C575.988 508.024 579.145 507.512 581.876 506.488C584.692 505.379 587.295 503.672 589.684 501.368L600.308 512.888C593.823 520.312 584.351 524.024 571.892 524.024C564.127 524.024 557.257 522.531 551.284 519.544C545.311 516.472 540.703 512.248 537.46 506.872C534.217 501.496 532.596 495.395 532.596 488.568C532.596 481.827 534.175 475.768 537.332 470.392C540.575 464.931 544.969 460.707 550.516 457.72C556.148 454.648 562.463 453.112 569.46 453.112C576.031 453.112 582.004 454.52 587.38 457.336C592.756 460.067 597.023 464.077 600.18 469.368C603.423 474.573 605.044 480.76 605.044 487.928L554.1 497.784C555.551 501.197 557.812 503.757 560.884 505.464C564.041 507.171 567.881 508.024 572.404 508.024ZM569.46 468.216C564.425 468.216 560.329 469.837 557.172 473.08C554.015 476.323 552.351 480.803 552.18 486.52L585.716 479.992C584.777 476.408 582.857 473.549 579.956 471.416C577.055 469.283 573.556 468.216 569.46 468.216ZM696.444 431.864C704.721 431.864 711.932 433.485 718.076 436.728C724.22 439.971 728.999 444.749 732.412 451.064C735.825 457.379 737.532 465.016 737.532 473.976V523H716.796V501.496H675.836V523H655.356V473.976C655.356 465.016 657.063 457.379 660.476 451.064C663.889 444.749 668.668 439.971 674.812 436.728C680.956 433.485 688.167 431.864 696.444 431.864ZM716.796 484.856V472.056C716.796 464.632 714.961 459.043 711.292 455.288C707.623 451.448 702.631 449.528 696.316 449.528C689.916 449.528 684.881 451.448 681.212 455.288C677.628 459.043 675.836 464.632 675.836 472.056V484.856H716.796ZM809.583 487.032C817.69 489.763 821.743 495.224 821.743 503.416C821.743 509.645 819.396 514.467 814.703 517.88C810.01 521.293 803.012 523 793.711 523H756.975V454.136H792.175C800.794 454.136 807.535 455.715 812.399 458.872C817.263 461.944 819.695 466.296 819.695 471.928C819.695 475.341 818.799 478.371 817.007 481.016C815.3 483.576 812.826 485.581 809.583 487.032ZM775.279 482.424H790.383C797.38 482.424 800.879 479.949 800.879 475C800.879 470.136 797.38 467.704 790.383 467.704H775.279V482.424ZM792.047 509.432C799.386 509.432 803.055 506.915 803.055 501.88C803.055 499.235 802.202 497.315 800.495 496.12C798.788 494.84 796.1 494.2 792.431 494.2H775.279V509.432H792.047ZM924.664 453.112C933.283 453.112 940.109 455.672 945.144 460.792C950.264 465.827 952.824 473.421 952.824 483.576V523H932.856V486.648C932.856 481.187 931.704 477.133 929.4 474.488C927.181 471.757 923.981 470.392 919.8 470.392C915.107 470.392 911.395 471.928 908.664 475C905.933 477.987 904.568 482.467 904.568 488.44V523H884.6V486.648C884.6 475.811 880.248 470.392 871.544 470.392C866.936 470.392 863.267 471.928 860.536 475C857.805 477.987 856.44 482.467 856.44 488.44V523H836.472V454.136H855.544V462.072C858.104 459.171 861.219 456.952 864.888 455.416C868.643 453.88 872.739 453.112 877.176 453.112C882.04 453.112 886.435 454.093 890.36 456.056C894.285 457.933 897.443 460.707 899.832 464.376C902.648 460.792 906.189 458.019 910.456 456.056C914.808 454.093 919.544 453.112 924.664 453.112ZM1002.48 524.024C995.228 524.024 988.7 522.531 982.897 519.544C977.18 516.472 972.7 512.248 969.457 506.872C966.214 501.496 964.593 495.395 964.593 488.568C964.593 481.741 966.214 475.64 969.457 470.264C972.7 464.888 977.18 460.707 982.897 457.72C988.7 454.648 995.228 453.112 1002.48 453.112C1009.73 453.112 1016.22 454.648 1021.94 457.72C1027.65 460.707 1032.13 464.888 1035.38 470.264C1038.62 475.64 1040.24 481.741 1040.24 488.568C1040.24 495.395 1038.62 501.496 1035.38 506.872C1032.13 512.248 1027.65 516.472 1021.94 519.544C1016.22 522.531 1009.73 524.024 1002.48 524.024ZM1002.48 507.64C1007.6 507.64 1011.78 505.933 1015.03 502.52C1018.35 499.021 1020.02 494.371 1020.02 488.568C1020.02 482.765 1018.35 478.157 1015.03 474.744C1011.78 471.245 1007.6 469.496 1002.48 469.496C997.361 469.496 993.137 471.245 989.809 474.744C986.481 478.157 984.817 482.765 984.817 488.568C984.817 494.371 986.481 499.021 989.809 502.52C993.137 505.933 997.361 507.64 1002.48 507.64ZM1121.18 523V481.784L1100.57 516.344H1092.12L1072.02 481.656V523H1053.98V454.136H1074.84L1096.86 493.944L1120.28 454.136H1138.97L1139.22 523H1121.18ZM1227.85 454.136V523H1208.78V515.064C1203.83 521.037 1196.66 524.024 1187.28 524.024C1180.79 524.024 1174.9 522.573 1169.61 519.672C1164.41 516.771 1160.31 512.632 1157.33 507.256C1154.34 501.88 1152.85 495.651 1152.85 488.568C1152.85 481.485 1154.34 475.256 1157.33 469.88C1160.31 464.504 1164.41 460.365 1169.61 457.464C1174.9 454.563 1180.79 453.112 1187.28 453.112C1196.07 453.112 1202.94 455.885 1207.89 461.432V454.136H1227.85ZM1190.73 507.64C1195.77 507.64 1199.95 505.933 1203.28 502.52C1206.61 499.021 1208.27 494.371 1208.27 488.568C1208.27 482.765 1206.61 478.157 1203.28 474.744C1199.95 471.245 1195.77 469.496 1190.73 469.496C1185.61 469.496 1181.39 471.245 1178.06 474.744C1174.73 478.157 1173.07 482.765 1173.07 488.568C1173.07 494.371 1174.73 499.021 1178.06 502.52C1181.39 505.933 1185.61 507.64 1190.73 507.64ZM1334.79 453.112C1343.41 453.112 1350.23 455.672 1355.27 460.792C1360.39 465.827 1362.95 473.421 1362.95 483.576V523H1342.98V486.648C1342.98 481.187 1341.83 477.133 1339.53 474.488C1337.31 471.757 1334.11 470.392 1329.93 470.392C1325.23 470.392 1321.52 471.928 1318.79 475C1316.06 477.987 1314.69 482.467 1314.69 488.44V523H1294.73V486.648C1294.73 475.811 1290.37 470.392 1281.67 470.392C1277.06 470.392 1273.39 471.928 1270.66 475C1267.93 477.987 1266.57 482.467 1266.57 488.44V523H1246.6V454.136H1265.67V462.072C1268.23 459.171 1271.34 456.952 1275.01 455.416C1278.77 453.88 1282.86 453.112 1287.3 453.112C1292.17 453.112 1296.56 454.093 1300.49 456.056C1304.41 457.933 1307.57 460.707 1309.96 464.376C1312.77 460.792 1316.31 458.019 1320.58 456.056C1324.93 454.093 1329.67 453.112 1334.79 453.112ZM1411.58 524.92C1400.66 524.92 1392.47 522.488 1387.01 517.624C1381.54 512.76 1378.81 505.592 1378.81 496.12V454.136H1398.65V477.432C1400.62 476.067 1403.18 474.915 1406.33 473.976C1409.58 473.037 1413.25 472.568 1417.34 472.568C1425.79 472.568 1432.4 474.701 1437.18 478.968C1441.96 483.235 1444.35 489.464 1444.35 497.656C1444.35 506.36 1441.41 513.101 1435.52 517.88C1429.63 522.573 1421.65 524.92 1411.58 524.92ZM1451.65 454.136H1471.61V523H1451.65V454.136ZM1411.58 510.84C1415.68 510.84 1418.79 509.645 1420.93 507.256C1423.06 504.867 1424.13 501.752 1424.13 497.912C1424.13 494.328 1423.02 491.469 1420.8 489.336C1418.66 487.117 1415.55 486.008 1411.45 486.008C1408.55 486.008 1405.99 486.605 1403.77 487.8C1401.64 488.909 1399.93 490.445 1398.65 492.408V498.04C1398.65 502.051 1399.76 505.208 1401.98 507.512C1404.2 509.731 1407.4 510.84 1411.58 510.84ZM659.255 662.104V697.56H640.055V679H574.519V697.56H555.319L555.447 662.104H566.199V628.568C566.199 619.949 567.906 612.611 571.319 606.552C574.732 600.408 579.511 595.757 585.655 592.6C591.884 589.443 599.095 587.864 607.287 587.864C615.479 587.864 622.647 589.443 628.791 592.6C635.02 595.757 639.842 600.408 643.255 606.552C646.668 612.611 648.375 619.949 648.375 628.568V662.104H659.255ZM627.511 662.104V626.776C627.511 619.779 625.719 614.488 622.135 610.904C618.636 607.32 613.687 605.528 607.287 605.528C600.972 605.528 595.98 607.32 592.311 610.904C588.727 614.488 586.935 619.779 586.935 626.776V662.104H627.511ZM705.654 664.024C709.238 664.024 712.395 663.512 715.126 662.488C717.942 661.379 720.545 659.672 722.934 657.368L733.558 668.888C727.073 676.312 717.601 680.024 705.142 680.024C697.377 680.024 690.507 678.531 684.534 675.544C678.561 672.472 673.953 668.248 670.71 662.872C667.467 657.496 665.846 651.395 665.846 644.568C665.846 637.827 667.425 631.768 670.582 626.392C673.825 620.931 678.219 616.707 683.766 613.72C689.398 610.648 695.713 609.112 702.71 609.112C709.281 609.112 715.254 610.52 720.63 613.336C726.006 616.067 730.273 620.077 733.43 625.368C736.673 630.573 738.294 636.76 738.294 643.928L687.35 653.784C688.801 657.197 691.062 659.757 694.134 661.464C697.291 663.171 701.131 664.024 705.654 664.024ZM702.71 624.216C697.675 624.216 693.579 625.837 690.422 629.08C687.265 632.323 685.601 636.803 685.43 642.52L718.966 635.992C718.027 632.408 716.107 629.549 713.206 627.416C710.305 625.283 706.806 624.216 702.71 624.216ZM819.3 679V637.784L798.692 672.344H790.244L770.148 637.656V679H752.1V610.136H772.964L794.98 649.944L818.404 610.136H837.092L837.348 679H819.3ZM888.731 680.024C881.478 680.024 874.95 678.531 869.147 675.544C863.43 672.472 858.95 668.248 855.707 662.872C852.464 657.496 850.843 651.395 850.843 644.568C850.843 637.741 852.464 631.64 855.707 626.264C858.95 620.888 863.43 616.707 869.147 613.72C874.95 610.648 881.478 609.112 888.731 609.112C895.984 609.112 902.47 610.648 908.187 613.72C913.904 616.707 918.384 620.888 921.627 626.264C924.87 631.64 926.491 637.741 926.491 644.568C926.491 651.395 924.87 657.496 921.627 662.872C918.384 668.248 913.904 672.472 908.187 675.544C902.47 678.531 895.984 680.024 888.731 680.024ZM888.731 663.64C893.851 663.64 898.032 661.933 901.275 658.52C904.603 655.021 906.267 650.371 906.267 644.568C906.267 638.765 904.603 634.157 901.275 630.744C898.032 627.245 893.851 625.496 888.731 625.496C883.611 625.496 879.387 627.245 876.059 630.744C872.731 634.157 871.067 638.765 871.067 644.568C871.067 650.371 872.731 655.021 876.059 658.52C879.387 661.933 883.611 663.64 888.731 663.64Z" fill="white"/>
<mask id="path-2-inside-1_17_2" fill="white">
<path fill-rule="evenodd" clip-rule="evenodd" d="M831.343 66.8628C831.825 67.8035 832.289 68.7513 832.735 69.7059H841.537C841.138 68.7518 840.722 67.804 840.291 66.8628H885.598C892.226 66.8628 897.598 72.2354 897.598 78.8628V128.569L821.252 128.569H813.252H657.425H649.425L537.283 128.569V78.8628C537.283 72.2354 542.656 66.8628 549.283 66.8628H606.765C606.764 66.8655 606.763 66.8683 606.761 66.8711H615.709C615.71 66.8683 615.712 66.8655 615.713 66.8628H831.343ZM905.598 78.8628V128.569L950.213 128.569C966.781 128.569 980.213 142 980.213 158.569L980.213 229H1029.96C1036.59 229 1041.96 223.627 1041.96 217V112.935C1015.59 111.012 994.811 89.9649 994.811 64.2843C994.811 37.3361 1017.69 15.4902 1045.91 15.4902C1074.12 15.4902 1097 37.3361 1097 64.2843C1097 89.9292 1076.28 110.953 1049.96 112.927V217C1049.96 228.046 1041.01 237 1029.96 237H980.213L980.213 298.392C980.213 314.961 966.781 328.392 950.213 328.392H905.598V375C905.598 386.046 896.644 395 885.598 395H549.283C538.238 395 529.283 386.046 529.283 375V328.392H509C492.431 328.392 479 314.961 479 298.392V158.569C479 142 492.431 128.569 509 128.569H529.283V78.8628C529.283 67.8171 538.238 58.8628 549.283 58.8628H610.904C631.058 24.038 673.915 0 723.528 0C773.142 0 815.999 24.038 836.152 58.8628H885.598C896.644 58.8628 905.598 67.8171 905.598 78.8628ZM897.598 137.863V136.569H821.252V320.392H950.213C962.363 320.392 972.213 310.543 972.213 298.392V158.569C972.213 146.418 962.363 136.569 950.213 136.569H905.598V137.863H897.598ZM537.283 328.392H897.598V375C897.598 381.627 892.226 387 885.598 387H549.283C542.656 387 537.283 381.627 537.283 375V328.392ZM620.35 58.8628C639.784 28.9642 678.07 8 723.528 8C768.986 8 807.272 28.9642 826.706 58.8628H620.35ZM657.425 320.392L657.425 136.569H813.252V320.392H657.425ZM649.425 320.392H509C496.85 320.392 487 310.543 487 298.392V158.569C487 146.418 496.85 136.569 509 136.569H649.425L649.425 320.392ZM566.845 177.032C566.202 175.288 563.735 175.288 563.092 177.032L551.248 209.165C550.958 209.951 550.209 210.474 549.371 210.474H511.636C509.638 210.474 508.875 213.08 510.557 214.158L540.634 233.421C541.425 233.927 541.757 234.916 541.432 235.797L529.845 267.233C529.182 269.032 531.185 270.643 532.8 269.609L563.89 249.697C564.547 249.276 565.39 249.276 566.047 249.697L597.137 269.609C598.752 270.643 600.755 269.032 600.092 267.233L588.505 235.797C588.18 234.916 588.512 233.927 589.303 233.421L619.38 214.158C621.062 213.08 620.299 210.474 618.301 210.474H580.566C579.728 210.474 578.979 209.951 578.689 209.165L566.845 177.032ZM726.919 177.032C727.562 175.288 730.029 175.288 730.672 177.032L742.516 209.165C742.806 209.951 743.555 210.474 744.392 210.474H782.128C784.126 210.474 784.889 213.08 783.207 214.158L753.13 233.421C752.339 233.927 752.007 234.916 752.332 235.797L763.919 267.233C764.582 269.032 762.578 270.643 760.964 269.609L729.874 249.697C729.216 249.276 728.374 249.276 727.717 249.697L696.627 269.609C695.012 270.643 693.008 269.032 693.672 267.233L705.259 235.797C705.583 234.916 705.252 233.927 704.461 233.421L674.384 214.158C672.702 213.08 673.465 210.474 675.463 210.474H713.198C714.036 210.474 714.785 209.951 715.075 209.165L726.919 177.032ZM902.609 177.032C901.966 175.288 899.499 175.288 898.856 177.032L887.012 209.165C886.722 209.951 885.973 210.474 885.135 210.474H847.4C845.402 210.474 844.639 213.08 846.321 214.158L876.398 233.421C877.189 233.927 877.52 234.916 877.196 235.797L865.609 267.233C864.945 269.032 866.949 270.643 868.564 269.609L899.654 249.697C900.311 249.276 901.153 249.276 901.811 249.697L932.901 269.609C934.515 270.643 936.519 269.032 935.856 267.233L924.269 235.797C923.944 234.916 924.276 233.927 925.067 233.421L955.144 214.158C956.826 213.08 956.063 210.474 954.065 210.474H916.329C915.492 210.474 914.743 209.951 914.453 209.165L902.609 177.032ZM1089 64.2843C1089 86.471 1070.06 105.078 1045.91 105.078C1021.75 105.078 1002.81 86.471 1002.81 64.2843C1002.81 42.0977 1021.75 23.4902 1045.91 23.4902C1070.06 23.4902 1089 42.0977 1089 64.2843Z"/>
</mask>
<path fill-rule="evenodd" clip-rule="evenodd" d="M831.343 66.8628C831.825 67.8035 832.289 68.7513 832.735 69.7059H841.537C841.138 68.7518 840.722 67.804 840.291 66.8628H885.598C892.226 66.8628 897.598 72.2354 897.598 78.8628V128.569L821.252 128.569H813.252H657.425H649.425L537.283 128.569V78.8628C537.283 72.2354 542.656 66.8628 549.283 66.8628H606.765C606.764 66.8655 606.763 66.8683 606.761 66.8711H615.709C615.71 66.8683 615.712 66.8655 615.713 66.8628H831.343ZM905.598 78.8628V128.569L950.213 128.569C966.781 128.569 980.213 142 980.213 158.569L980.213 229H1029.96C1036.59 229 1041.96 223.627 1041.96 217V112.935C1015.59 111.012 994.811 89.9649 994.811 64.2843C994.811 37.3361 1017.69 15.4902 1045.91 15.4902C1074.12 15.4902 1097 37.3361 1097 64.2843C1097 89.9292 1076.28 110.953 1049.96 112.927V217C1049.96 228.046 1041.01 237 1029.96 237H980.213L980.213 298.392C980.213 314.961 966.781 328.392 950.213 328.392H905.598V375C905.598 386.046 896.644 395 885.598 395H549.283C538.238 395 529.283 386.046 529.283 375V328.392H509C492.431 328.392 479 314.961 479 298.392V158.569C479 142 492.431 128.569 509 128.569H529.283V78.8628C529.283 67.8171 538.238 58.8628 549.283 58.8628H610.904C631.058 24.038 673.915 0 723.528 0C773.142 0 815.999 24.038 836.152 58.8628H885.598C896.644 58.8628 905.598 67.8171 905.598 78.8628ZM897.598 137.863V136.569H821.252V320.392H950.213C962.363 320.392 972.213 310.543 972.213 298.392V158.569C972.213 146.418 962.363 136.569 950.213 136.569H905.598V137.863H897.598ZM537.283 328.392H897.598V375C897.598 381.627 892.226 387 885.598 387H549.283C542.656 387 537.283 381.627 537.283 375V328.392ZM620.35 58.8628C639.784 28.9642 678.07 8 723.528 8C768.986 8 807.272 28.9642 826.706 58.8628H620.35ZM657.425 320.392L657.425 136.569H813.252V320.392H657.425ZM649.425 320.392H509C496.85 320.392 487 310.543 487 298.392V158.569C487 146.418 496.85 136.569 509 136.569H649.425L649.425 320.392ZM566.845 177.032C566.202 175.288 563.735 175.288 563.092 177.032L551.248 209.165C550.958 209.951 550.209 210.474 549.371 210.474H511.636C509.638 210.474 508.875 213.08 510.557 214.158L540.634 233.421C541.425 233.927 541.757 234.916 541.432 235.797L529.845 267.233C529.182 269.032 531.185 270.643 532.8 269.609L563.89 249.697C564.547 249.276 565.39 249.276 566.047 249.697L597.137 269.609C598.752 270.643 600.755 269.032 600.092 267.233L588.505 235.797C588.18 234.916 588.512 233.927 589.303 233.421L619.38 214.158C621.062 213.08 620.299 210.474 618.301 210.474H580.566C579.728 210.474 578.979 209.951 578.689 209.165L566.845 177.032ZM726.919 177.032C727.562 175.288 730.029 175.288 730.672 177.032L742.516 209.165C742.806 209.951 743.555 210.474 744.392 210.474H782.128C784.126 210.474 784.889 213.08 783.207 214.158L753.13 233.421C752.339 233.927 752.007 234.916 752.332 235.797L763.919 267.233C764.582 269.032 762.578 270.643 760.964 269.609L729.874 249.697C729.216 249.276 728.374 249.276 727.717 249.697L696.627 269.609C695.012 270.643 693.008 269.032 693.672 267.233L705.259 235.797C705.583 234.916 705.252 233.927 704.461 233.421L674.384 214.158C672.702 213.08 673.465 210.474 675.463 210.474H713.198C714.036 210.474 714.785 209.951 715.075 209.165L726.919 177.032ZM902.609 177.032C901.966 175.288 899.499 175.288 898.856 177.032L887.012 209.165C886.722 209.951 885.973 210.474 885.135 210.474H847.4C845.402 210.474 844.639 213.08 846.321 214.158L876.398 233.421C877.189 233.927 877.52 234.916 877.196 235.797L865.609 267.233C864.945 269.032 866.949 270.643 868.564 269.609L899.654 249.697C900.311 249.276 901.153 249.276 901.811 249.697L932.901 269.609C934.515 270.643 936.519 269.032 935.856 267.233L924.269 235.797C923.944 234.916 924.276 233.927 925.067 233.421L955.144 214.158C956.826 213.08 956.063 210.474 954.065 210.474H916.329C915.492 210.474 914.743 209.951 914.453 209.165L902.609 177.032ZM1089 64.2843C1089 86.471 1070.06 105.078 1045.91 105.078C1021.75 105.078 1002.81 86.471 1002.81 64.2843C1002.81 42.0977 1021.75 23.4902 1045.91 23.4902C1070.06 23.4902 1089 42.0977 1089 64.2843Z" fill="#BF8108"/>
<path d="M832.735 69.7059L831.829 70.129L832.098 70.7059H832.735V69.7059ZM831.343 66.8628L832.233 66.4069L831.955 65.8628H831.343V66.8628ZM841.537 69.7059V70.7059H843.039L842.459 69.3201L841.537 69.7059ZM840.291 66.8628V65.8628H838.733L839.382 67.2793L840.291 66.8628ZM897.598 128.569V129.569H898.598V128.569H897.598ZM821.252 128.569V127.569V128.569ZM649.425 128.569V127.569V128.569ZM537.283 128.569H536.283V129.569H537.283V128.569ZM606.765 66.8628L607.674 67.2796L608.324 65.8628H606.765V66.8628ZM606.761 66.8711L605.852 66.4542L605.203 67.8711H606.761V66.8711ZM615.709 66.8711V67.8711H616.319L616.598 67.3281L615.709 66.8711ZM615.713 66.8628V65.8628H615.103L614.824 66.4058L615.713 66.8628ZM905.598 128.569H904.598V129.569H905.598V128.569ZM950.213 128.569V129.569V128.569ZM980.213 158.569H979.213H980.213ZM980.213 229H979.213V230H980.213V229ZM1041.96 112.935H1042.96V112.005L1042.03 111.938L1041.96 112.935ZM1049.96 112.927L1049.89 111.93L1048.96 111.999V112.927H1049.96ZM980.213 237V236H979.213V237H980.213ZM980.213 298.392H979.213H980.213ZM905.598 328.392V327.392H904.598V328.392H905.598ZM529.283 328.392H530.283V327.392H529.283V328.392ZM529.283 128.569V129.569H530.283V128.569H529.283ZM610.904 58.8628V59.8628H611.481L611.77 59.3637L610.904 58.8628ZM836.152 58.8628L835.286 59.3637L835.575 59.8628H836.152V58.8628ZM897.598 136.569H898.598V135.569H897.598V136.569ZM897.598 137.863H896.598V138.863H897.598V137.863ZM821.252 136.569V135.569H820.252V136.569H821.252ZM821.252 320.392H820.252V321.392H821.252V320.392ZM905.598 136.569V135.569H904.598V136.569H905.598ZM905.598 137.863V138.863H906.598V137.863H905.598ZM897.598 328.392H898.598V327.392H897.598V328.392ZM537.283 328.392V327.392H536.283V328.392H537.283ZM620.35 58.8628L619.512 58.3178L618.508 59.8628H620.35V58.8628ZM826.706 58.8628V59.8628H828.549L827.544 58.3178L826.706 58.8628ZM657.425 136.569V135.569H656.425V136.569H657.425ZM657.425 320.392H656.425V321.392H657.425V320.392ZM813.252 136.569H814.252V135.569H813.252V136.569ZM813.252 320.392V321.392H814.252V320.392H813.252ZM649.425 320.392V321.392H650.425V320.392H649.425ZM649.425 136.569H650.425V135.569H649.425V136.569ZM563.092 177.032L564.03 177.378L563.092 177.032ZM566.845 177.032L565.907 177.378L566.845 177.032ZM551.248 209.165L552.186 209.511L552.186 209.511L551.248 209.165ZM510.557 214.158L511.097 213.316H511.097L510.557 214.158ZM540.634 233.421L541.173 232.579L541.173 232.579L540.634 233.421ZM541.432 235.797L540.494 235.451L541.432 235.797ZM529.845 267.233L528.907 266.887H528.907L529.845 267.233ZM532.8 269.609L532.261 268.767H532.261L532.8 269.609ZM563.89 249.697L564.429 250.539V250.539L563.89 249.697ZM566.047 249.697L565.508 250.539V250.539L566.047 249.697ZM597.137 269.609L597.676 268.767L597.137 269.609ZM600.092 267.233L599.154 267.579L600.092 267.233ZM588.505 235.797L589.443 235.451V235.451L588.505 235.797ZM589.303 233.421L588.764 232.579L588.764 232.579L589.303 233.421ZM619.38 214.158L618.84 213.316L619.38 214.158ZM578.689 209.165L577.751 209.511L577.751 209.511L578.689 209.165ZM730.672 177.032L731.61 176.687L730.672 177.032ZM726.919 177.032L727.857 177.378L726.919 177.032ZM742.516 209.165L741.577 209.511V209.511L742.516 209.165ZM783.207 214.158L783.746 215V215L783.207 214.158ZM753.13 233.421L752.59 232.579V232.579L753.13 233.421ZM752.332 235.797L751.394 236.143V236.143L752.332 235.797ZM763.919 267.233L762.981 267.579L763.919 267.233ZM760.964 269.609L761.503 268.767L760.964 269.609ZM729.874 249.697L729.335 250.539L729.335 250.539L729.874 249.697ZM727.717 249.697L727.177 248.855L727.717 249.697ZM696.627 269.609L696.088 268.767H696.088L696.627 269.609ZM693.672 267.233L692.733 266.887V266.887L693.672 267.233ZM705.259 235.797L706.197 236.143L705.259 235.797ZM704.461 233.421L705 232.579L705 232.579L704.461 233.421ZM674.384 214.158L674.923 213.316L674.384 214.158ZM715.075 209.165L714.136 208.82L715.075 209.165ZM898.856 177.032L899.794 177.378L898.856 177.032ZM902.609 177.032L903.547 176.687L902.609 177.032ZM887.012 209.165L886.073 208.82V208.82L887.012 209.165ZM846.321 214.158L846.86 213.316L846.321 214.158ZM876.398 233.421L876.937 232.579V232.579L876.398 233.421ZM877.196 235.797L876.257 235.451V235.451L877.196 235.797ZM865.609 267.233L866.547 267.579L865.609 267.233ZM868.564 269.609L868.025 268.767L868.564 269.609ZM899.654 249.697L899.114 248.855L899.654 249.697ZM901.811 249.697L902.35 248.855L901.811 249.697ZM932.901 269.609L933.44 268.767L932.901 269.609ZM935.856 267.233L934.918 267.579L935.856 267.233ZM924.269 235.797L925.207 235.451V235.451L924.269 235.797ZM925.067 233.421L924.527 232.579V232.579L925.067 233.421ZM955.144 214.158L954.604 213.316L955.144 214.158ZM914.453 209.165L915.391 208.82V208.82L914.453 209.165ZM833.641 69.2827C833.19 68.3171 832.721 67.3583 832.233 66.4069L830.453 67.3187C830.93 68.2486 831.388 69.1855 831.829 70.129L833.641 69.2827ZM841.537 68.7059H832.735V70.7059H841.537V68.7059ZM839.382 67.2793C839.809 68.2104 840.219 69.1479 840.614 70.0917L842.459 69.3201C842.056 68.3556 841.636 67.3976 841.2 66.4462L839.382 67.2793ZM885.598 65.8628H840.291V67.8628H885.598V65.8628ZM898.598 78.8628C898.598 71.6831 892.778 65.8628 885.598 65.8628V67.8628C891.674 67.8628 896.598 72.7877 896.598 78.8628H898.598ZM898.598 128.569V78.8628H896.598V128.569H898.598ZM821.252 129.569L897.598 129.569V127.569L821.252 127.569V129.569ZM813.252 129.569H821.252V127.569H813.252V129.569ZM657.425 129.569H813.252V127.569H657.425V129.569ZM649.425 129.569H657.425V127.569H649.425V129.569ZM537.283 129.569L649.425 129.569V127.569L537.283 127.569V129.569ZM536.283 78.8628V128.569H538.283V78.8628H536.283ZM549.283 65.8628C542.104 65.8628 536.283 71.6831 536.283 78.8628H538.283C538.283 72.7876 543.208 67.8628 549.283 67.8628V65.8628ZM606.765 65.8628H549.283V67.8628H606.765V65.8628ZM607.67 67.2879C607.671 67.2862 607.672 67.2845 607.673 67.2832C607.673 67.2818 607.674 67.2807 607.674 67.2796L605.856 66.446C605.855 66.4477 605.855 66.4493 605.854 66.4507C605.853 66.4521 605.853 66.4532 605.852 66.4542L607.67 67.2879ZM606.761 67.8711H615.709V65.8711H606.761V67.8711ZM614.824 66.4058C614.822 66.408 614.821 66.4101 614.821 66.4113C614.82 66.4128 614.82 66.4135 614.819 66.414L616.598 67.3281C616.599 67.3258 616.6 67.3237 616.601 67.3225C616.602 67.321 616.602 67.3203 616.603 67.3198L614.824 66.4058ZM831.343 65.8628H615.713V67.8628H831.343V65.8628ZM906.598 128.569V78.8628H904.598V128.569H906.598ZM950.213 127.569L905.598 127.569V129.569L950.213 129.569V127.569ZM981.213 158.569C981.213 141.448 967.333 127.569 950.213 127.569V129.569C966.229 129.569 979.213 142.552 979.213 158.569H981.213ZM981.213 229L981.213 158.569H979.213L979.213 229H981.213ZM1029.96 228H980.213V230H1029.96V228ZM1040.96 217C1040.96 223.075 1036.04 228 1029.96 228V230C1037.14 230 1042.96 224.18 1042.96 217H1040.96ZM1040.96 112.935V217H1042.96V112.935H1040.96ZM993.811 64.2843C993.811 90.5313 1015.03 111.974 1041.89 113.933L1042.03 111.938C1016.14 110.05 995.811 89.3986 995.811 64.2843H993.811ZM1045.91 14.4902C1017.18 14.4902 993.811 36.7409 993.811 64.2843H995.811C995.811 37.9313 1018.2 16.4902 1045.91 16.4902V14.4902ZM1098 64.2843C1098 36.7409 1074.63 14.4902 1045.91 14.4902V16.4902C1073.62 16.4902 1096 37.9313 1096 64.2843H1098ZM1050.04 113.924C1076.84 111.915 1098 90.4947 1098 64.2843H1096C1096 89.3637 1075.73 109.992 1049.89 111.93L1050.04 113.924ZM1050.96 217V112.927H1048.96V217H1050.96ZM1029.96 238C1041.56 238 1050.96 228.598 1050.96 217H1048.96C1048.96 227.493 1040.45 236 1029.96 236V238ZM980.213 238H1029.96V236H980.213V238ZM981.213 298.392L981.213 237H979.213L979.213 298.392H981.213ZM950.213 329.392C967.333 329.392 981.213 315.513 981.213 298.392H979.213C979.213 314.409 966.229 327.392 950.213 327.392V329.392ZM905.598 329.392H950.213V327.392H905.598V329.392ZM906.598 375V328.392H904.598V375H906.598ZM885.598 396C897.196 396 906.598 386.598 906.598 375H904.598C904.598 385.493 896.092 394 885.598 394V396ZM549.283 396H885.598V394H549.283V396ZM528.283 375C528.283 386.598 537.685 396 549.283 396V394C538.79 394 530.283 385.493 530.283 375H528.283ZM528.283 328.392V375H530.283V328.392H528.283ZM509 329.392H529.283V327.392H509V329.392ZM478 298.392C478 315.513 491.879 329.392 509 329.392V327.392C492.984 327.392 480 314.409 480 298.392H478ZM478 158.569V298.392H480V158.569H478ZM509 127.569C491.879 127.569 478 141.448 478 158.569H480C480 142.552 492.984 129.569 509 129.569V127.569ZM529.283 127.569H509V129.569H529.283V127.569ZM528.283 78.8628V128.569H530.283V78.8628H528.283ZM549.283 57.8628C537.685 57.8628 528.283 67.2648 528.283 78.8628H530.283C530.283 68.3693 538.79 59.8628 549.283 59.8628V57.8628ZM610.904 57.8628H549.283V59.8628H610.904V57.8628ZM723.528 -1C673.61 -1 630.396 23.1852 610.039 58.3619L611.77 59.3637C631.72 24.8908 674.219 1 723.528 1V-1ZM837.017 58.3619C816.66 23.1852 773.446 -1 723.528 -1V1C772.837 1 815.337 24.8908 835.286 59.3637L837.017 58.3619ZM885.598 57.8628H836.152V59.8628H885.598V57.8628ZM906.598 78.8628C906.598 67.2648 897.196 57.8628 885.598 57.8628V59.8628C896.092 59.8628 904.598 68.3694 904.598 78.8628H906.598ZM896.598 136.569V137.863H898.598V136.569H896.598ZM821.252 137.569H897.598V135.569H821.252V137.569ZM822.252 320.392V136.569H820.252V320.392H822.252ZM950.213 319.392H821.252V321.392H950.213V319.392ZM971.213 298.392C971.213 309.99 961.811 319.392 950.213 319.392V321.392C962.915 321.392 973.213 311.095 973.213 298.392H971.213ZM971.213 158.569V298.392H973.213V158.569H971.213ZM950.213 137.569C961.811 137.569 971.213 146.971 971.213 158.569H973.213C973.213 145.866 962.915 135.569 950.213 135.569V137.569ZM905.598 137.569H950.213V135.569H905.598V137.569ZM906.598 137.863V136.569H904.598V137.863H906.598ZM897.598 138.863H905.598V136.863H897.598V138.863ZM897.598 327.392H537.283V329.392H897.598V327.392ZM898.598 375V328.392H896.598V375H898.598ZM885.598 388C892.778 388 898.598 382.18 898.598 375H896.598C896.598 381.075 891.674 386 885.598 386V388ZM549.283 388H885.598V386H549.283V388ZM536.283 375C536.283 382.18 542.104 388 549.283 388V386C543.208 386 538.283 381.075 538.283 375H536.283ZM536.283 328.392V375H538.283V328.392H536.283ZM723.528 7C677.774 7 639.152 28.1015 619.512 58.3178L621.189 59.4078C640.416 29.827 678.366 9 723.528 9V7ZM827.544 58.3178C807.904 28.1015 769.282 7 723.528 7V9C768.691 9 806.64 29.827 825.868 59.4078L827.544 58.3178ZM620.35 59.8628H826.706V57.8628H620.35V59.8628ZM656.425 136.569L656.425 320.392H658.425L658.425 136.569H656.425ZM813.252 135.569H657.425V137.569H813.252V135.569ZM814.252 320.392V136.569H812.252V320.392H814.252ZM657.425 321.392H813.252V319.392H657.425V321.392ZM509 321.392H649.425V319.392H509V321.392ZM486 298.392C486 311.095 496.297 321.392 509 321.392V319.392C497.402 319.392 488 309.99 488 298.392H486ZM486 158.569V298.392H488V158.569H486ZM509 135.569C496.297 135.569 486 145.866 486 158.569H488C488 146.971 497.402 137.569 509 137.569V135.569ZM649.425 135.569H509V137.569H649.425V135.569ZM650.425 320.392L650.425 136.569H648.425L648.425 320.392H650.425ZM564.03 177.378C564.352 176.506 565.585 176.506 565.907 177.378L567.783 176.687C566.819 174.07 563.118 174.07 562.154 176.687L564.03 177.378ZM552.186 209.511L564.03 177.378L562.154 176.687L550.31 208.82L552.186 209.511ZM549.371 211.474C550.628 211.474 551.752 210.69 552.186 209.511L550.31 208.819C550.165 209.213 549.79 209.474 549.371 209.474V211.474ZM511.636 211.474H549.371V209.474H511.636V211.474ZM511.097 213.316C510.255 212.777 510.637 211.474 511.636 211.474V209.474C508.639 209.474 507.494 213.384 510.018 215L511.097 213.316ZM541.173 232.579L511.097 213.316L510.018 215L540.095 234.263L541.173 232.579ZM542.37 236.143C542.857 234.821 542.359 233.338 541.173 232.579L540.095 234.263C540.49 234.516 540.656 235.01 540.494 235.451L542.37 236.143ZM530.783 267.579L542.37 236.143L540.494 235.451L528.907 266.887L530.783 267.579ZM532.261 268.767C531.453 269.284 530.452 268.478 530.783 267.579L528.907 266.887C527.912 269.586 530.917 272.002 533.339 270.451L532.261 268.767ZM563.351 248.855L532.261 268.767L533.339 270.451L564.429 250.539L563.351 248.855ZM566.586 248.855C565.6 248.223 564.337 248.223 563.351 248.855L564.429 250.539C564.758 250.329 565.179 250.329 565.508 250.539L566.586 248.855ZM597.676 268.767L566.586 248.855L565.508 250.539L596.598 270.451L597.676 268.767ZM599.154 267.579C599.485 268.478 598.484 269.284 597.676 268.767L596.598 270.451C599.02 272.002 602.025 269.586 601.03 266.887L599.154 267.579ZM587.567 236.143L599.154 267.579L601.03 266.887L589.443 235.451L587.567 236.143ZM588.764 232.579C587.578 233.338 587.08 234.821 587.567 236.143L589.443 235.451C589.281 235.01 589.447 234.516 589.842 234.263L588.764 232.579ZM618.84 213.316L588.764 232.579L589.842 234.263L619.919 215L618.84 213.316ZM618.301 211.474C619.3 211.474 619.682 212.777 618.84 213.316L619.919 215C622.443 213.384 621.298 209.474 618.301 209.474V211.474ZM580.566 211.474H618.301V209.474H580.566V211.474ZM577.751 209.511C578.185 210.69 579.309 211.474 580.566 211.474V209.474C580.147 209.474 579.772 209.213 579.627 208.819L577.751 209.511ZM565.907 177.378L577.751 209.511L579.627 208.82L567.783 176.687L565.907 177.378ZM731.61 176.687C730.646 174.07 726.945 174.07 725.98 176.687L727.857 177.378C728.178 176.506 729.412 176.506 729.734 177.378L731.61 176.687ZM743.454 208.82L731.61 176.687L729.734 177.378L741.577 209.511L743.454 208.82ZM744.392 209.474C743.973 209.474 743.599 209.213 743.454 208.819L741.577 209.511C742.012 210.69 743.136 211.474 744.392 211.474V209.474ZM782.128 209.474H744.392V211.474H782.128V209.474ZM783.746 215C786.269 213.384 785.125 209.474 782.128 209.474V211.474C783.127 211.474 783.508 212.777 782.667 213.316L783.746 215ZM753.669 234.263L783.746 215L782.667 213.316L752.59 232.579L753.669 234.263ZM753.27 235.451C753.108 235.01 753.274 234.516 753.669 234.263L752.59 232.579C751.404 233.338 750.906 234.821 751.394 236.143L753.27 235.451ZM764.857 266.887L753.27 235.451L751.394 236.143L762.981 267.579L764.857 266.887ZM760.424 270.451C762.846 272.002 765.852 269.586 764.857 266.887L762.981 267.579C763.312 268.478 762.31 269.284 761.503 268.767L760.424 270.451ZM729.335 250.539L760.424 270.451L761.503 268.767L730.413 248.855L729.335 250.539ZM728.256 250.539C728.585 250.328 729.006 250.329 729.335 250.539L730.413 248.855C729.427 248.223 728.163 248.223 727.177 248.855L728.256 250.539ZM697.166 270.451L728.256 250.539L727.177 248.855L696.088 268.767L697.166 270.451ZM692.733 266.887C691.739 269.586 694.744 272.002 697.166 270.451L696.088 268.767C695.28 269.284 694.278 268.478 694.61 267.579L692.733 266.887ZM704.32 235.451L692.733 266.887L694.61 267.579L706.197 236.143L704.32 235.451ZM703.921 234.263C704.317 234.516 704.483 235.01 704.32 235.451L706.197 236.143C706.684 234.821 706.186 233.338 705 232.579L703.921 234.263ZM673.845 215L703.921 234.263L705 232.579L674.923 213.316L673.845 215ZM675.463 209.474C672.466 209.474 671.321 213.384 673.845 215L674.923 213.316C674.082 212.777 674.464 211.474 675.463 211.474V209.474ZM713.198 209.474H675.463V211.474H713.198V209.474ZM714.136 208.82C713.992 209.213 713.617 209.474 713.198 209.474V211.474C714.455 211.474 715.578 210.69 716.013 209.511L714.136 208.82ZM725.98 176.687L714.136 208.82L716.013 209.511L727.857 177.378L725.98 176.687ZM899.794 177.378C900.115 176.506 901.349 176.506 901.671 177.378L903.547 176.687C902.583 174.07 898.882 174.07 897.917 176.687L899.794 177.378ZM887.95 209.511L899.794 177.378L897.917 176.687L886.073 208.82L887.95 209.511ZM885.135 211.474C886.392 211.474 887.515 210.69 887.95 209.511L886.073 208.82C885.929 209.213 885.554 209.474 885.135 209.474V211.474ZM847.4 211.474H885.135V209.474H847.4V211.474ZM846.86 213.316C846.019 212.777 846.401 211.474 847.4 211.474V209.474C844.403 209.474 843.258 213.384 845.782 215L846.86 213.316ZM876.937 232.579L846.86 213.316L845.782 215L875.858 234.263L876.937 232.579ZM878.134 236.143C878.621 234.821 878.123 233.338 876.937 232.579L875.858 234.263C876.254 234.516 876.42 235.01 876.257 235.451L878.134 236.143ZM866.547 267.579L878.134 236.143L876.257 235.451L864.67 266.887L866.547 267.579ZM868.025 268.767C867.217 269.284 866.215 268.478 866.547 267.579L864.67 266.887C863.676 269.586 866.681 272.002 869.103 270.451L868.025 268.767ZM899.114 248.855L868.025 268.767L869.103 270.451L900.193 250.539L899.114 248.855ZM902.35 248.855C901.364 248.223 900.1 248.223 899.114 248.855L900.193 250.539C900.522 250.328 900.943 250.328 901.272 250.539L902.35 248.855ZM933.44 268.767L902.35 248.855L901.272 250.539L932.361 270.451L933.44 268.767ZM934.918 267.579C935.249 268.478 934.247 269.284 933.44 268.767L932.361 270.451C934.783 272.002 937.789 269.586 936.794 266.887L934.918 267.579ZM923.331 236.143L934.918 267.579L936.794 266.887L925.207 235.451L923.331 236.143ZM924.527 232.579C923.341 233.338 922.843 234.821 923.331 236.143L925.207 235.451C925.045 235.01 925.211 234.516 925.606 234.263L924.527 232.579ZM954.604 213.316L924.527 232.579L925.606 234.263L955.683 215L954.604 213.316ZM954.065 211.474C955.064 211.474 955.445 212.777 954.604 213.316L955.683 215C958.206 213.384 957.062 209.474 954.065 209.474V211.474ZM916.329 211.474H954.065V209.474H916.329V211.474ZM913.514 209.511C913.949 210.69 915.073 211.474 916.329 211.474V209.474C915.91 209.474 915.536 209.213 915.391 208.82L913.514 209.511ZM901.671 177.378L913.514 209.511L915.391 208.82L903.547 176.687L901.671 177.378ZM1045.91 106.078C1070.57 106.078 1090 87.0638 1090 64.2843H1088C1088 85.8782 1069.55 104.078 1045.91 104.078V106.078ZM1001.81 64.2843C1001.81 87.0638 1021.24 106.078 1045.91 106.078V104.078C1022.26 104.078 1003.81 85.8782 1003.81 64.2843H1001.81ZM1045.91 22.4902C1021.24 22.4902 1001.81 41.5049 1001.81 64.2843H1003.81C1003.81 42.6904 1022.26 24.4902 1045.91 24.4902V22.4902ZM1090 64.2843C1090 41.5049 1070.57 22.4902 1045.91 22.4902V24.4902C1069.55 24.4902 1088 42.6904 1088 64.2843H1090Z" fill="#BF8108" mask="url(#path-2-inside-1_17_2)"/>
<path d="M435 719C577.682 802.094 882 801.238 1049 719" stroke="#BF8108" stroke-width="27" stroke-linecap="round"/>
</svg>
